<svg version="1.0" xmlns="http://www.w3.org/2000/svg" width="16.000000pt" height="16.000000pt"
  viewBox="0 0 200.000000 200.000000" preserveAspectRatio="xMidYMid meet">
  <g transform="translate(0.000000,200.000000) scale(0.100000,-0.100000)" fill="#000000"
    stroke="none">
    <path
      d="M0 1000 l0 -1000 1000 0 1000 0 0 1000 0 1000 -1000 0 -1000 0 0
                        -1000z m890 670 l0 -110 -207 -2 c-115 0 -215 -1 -223 -2 -12 -1 -15 -20 -15
                        -111 l0 -110 223 -3 222 -2 0 -110 0 -110 -335 0 -335 0 0 335 0 335 335 0
                        335 0 0 -110z m890 0 l0 -110 -222 -2 -223 -3 0 -110 0 -110 223 -3 222 -2 0
                        -110 0 -110 -335 0 -335 0 0 335 0 335 335 0 335 0 0 -110z m-1340 -890 l0
                        -110 115 0 115 0 0 110 0 110 110 0 110 0 0 -110 0 -110 -110 0 -111 0 3 -112
                        c2 -92 6 -113 18 -114 8 -1 57 -2 108 -2 l92 -2 0 -110 0 -110 -110 0 -110 0
                        0 115 0 116 -112 -3 -113 -3 -3 -112 -3 -113 -109 0 -110 0 0 110 0 110 88 0
                        c140 0 132 -7 132 121 l0 109 -110 0 -110 0 0 110 0 110 110 0 110 0 0 -110z
                        m1340 0 l0 -110 -110 0 -110 0 -2 -222 -3 -223 -110 0 -110 0 -3 223 -2 222
                        -110 0 -110 0 0 110 0 110 335 0 335 0 0 -110z" />
  </g>
</svg>